<svg width="64" height="64" viewBox="0 0 64 64" fill="none" xmlns="http://www.w3.org/2000/svg">
<path d="M18.9714 8.83789C18.9715 11.2363 20.9154 13.18 23.3138 13.1803H40.6862C43.0847 13.1802 45.0285 11.2364 45.0286 8.83789V1.59961H52.2669C54.6655 1.59967 56.6092 3.54356 56.6094 5.94206V58.0566C56.6094 60.4553 54.6656 62.399 52.2669 62.3991H11.7331C9.33454 62.3989 7.39062 60.4552 7.39062 58.0566V5.94206C7.39085 3.54366 9.33467 1.59983 11.7331 1.59961H18.9714V8.83789ZM24.3385 45.4525C23.774 44.8879 22.855 44.8879 22.2904 45.4525L17.5234 50.2194L15.6523 48.347C15.0879 47.7828 14.17 47.7829 13.6055 48.347C13.041 48.9115 13.0411 49.8293 13.6055 50.3939L16.5 53.2897C17.0645 53.8556 17.9823 53.8555 18.5469 53.2897L24.3385 47.4994C24.9027 46.9349 24.9026 46.017 24.3385 45.4525ZM29.1055 47.9238C28.3066 47.9238 27.6579 48.5716 27.6576 49.3704C27.6576 50.1695 28.3064 50.8184 29.1055 50.8184H49.3711C50.1702 50.8184 50.819 50.1695 50.819 49.3704C50.8187 48.5716 50.17 47.9238 49.3711 47.9238H29.1055ZM24.3385 33.8717C23.774 33.3072 22.855 33.3072 22.2904 33.8717L17.5234 38.6387L15.6523 36.7663C15.0878 36.2019 14.1701 36.202 13.6055 36.7663C13.041 37.3308 13.041 38.2486 13.6055 38.8132L16.5 41.709C17.0645 42.2749 17.9823 42.2746 18.5469 41.709L24.3385 35.9186C24.9028 35.3542 24.9025 34.4363 24.3385 33.8717ZM29.1055 36.3431C28.3065 36.3431 27.6578 36.9908 27.6576 37.7897C27.6576 38.5888 28.3064 39.2376 29.1055 39.2376H49.3711C50.1702 39.2376 50.819 38.5888 50.819 37.7897C50.8188 36.9908 50.1701 36.3431 49.3711 36.3431H29.1055ZM24.3385 22.291C23.774 21.7265 22.855 21.7265 22.2904 22.291L17.5234 27.0579L15.6523 25.1855C15.0878 24.6211 14.1701 24.6212 13.6055 25.1855C13.0409 25.7501 13.0409 26.6678 13.6055 27.2324L16.5 30.1283C17.0644 30.6941 17.9822 30.6938 18.5469 30.1283L24.3385 24.3379C24.9028 23.7735 24.9025 22.8556 24.3385 22.291ZM29.1055 24.7611C28.3064 24.7611 27.6576 25.41 27.6576 26.209C27.6576 27.0081 28.3064 27.6569 29.1055 27.6569H49.3711C50.1702 27.6569 50.819 27.0081 50.819 26.209C50.8189 25.41 50.1701 24.7611 49.3711 24.7611H29.1055ZM42.1328 8.83789C42.1327 9.63669 41.4849 10.2855 40.6862 10.2858H23.3138C22.5149 10.2856 21.8673 9.63678 21.8672 8.83789V1.59961H42.1328V8.83789Z" fill="#1F5CBF"/>
</svg>
