<svg width="48" height="48" viewBox="0 0 48 48" fill="none" xmlns="http://www.w3.org/2000/svg">
<path d="M35.5 23.126C37.064 24.391 39.088 25.1504 41.25 25.1504C42.469 25.1504 43.6422 24.897 44.7002 24.46V42.4004C44.7 44.9302 42.6295 47 40.0996 47H7.90039C5.37052 47 3.30002 44.9302 3.2998 42.4004V24.46C4.81177 25.0842 6.46416 25.2894 8.08301 25.0547C9.70184 24.8199 11.2276 24.154 12.5 23.126C14.087 24.391 16.088 25.1504 18.25 25.1504C20.435 25.1504 22.436 24.391 24 23.126C25.587 24.391 27.588 25.1504 29.75 25.1504C31.935 25.1504 33.936 24.391 35.5 23.126ZM33.5225 28.5996C31.6595 28.5996 29.9106 29.3126 28.5996 30.6006C27.2426 31.9346 26.4844 33.683 26.4844 35.5C26.4844 37.3399 27.197 39.0417 28.5078 40.3066C29.874 41.6401 31.7052 42.3913 33.6143 42.4004H33.6602C35.5001 42.4004 37.1331 41.7325 38.3291 40.5596C39.41 39.4556 40.0996 37.7997 40.0996 36.2588C40.0996 35.7989 40.1003 35.3155 39.9854 34.8096L39.916 34.4424H33.085V37.1328H37.248C37.1101 37.6387 36.926 38.1446 36.5352 38.5586C35.7762 39.3176 34.7407 39.7324 33.6367 39.7324C32.4869 39.7323 31.3601 39.2491 30.5322 38.4443C28.9452 36.8113 28.9451 34.1658 30.5781 32.5098C32.1651 30.8999 34.7874 30.9005 36.4434 32.4414L36.7646 32.7402L38.6973 30.7852L38.3291 30.4629C37.0411 29.2669 35.3389 28.5996 33.5449 28.5996H33.5225ZM40.79 1C43.136 1.00003 43.8027 3.48438 43.8027 3.48438L47 15.9502C46.9999 19.1011 44.4239 21.7002 41.25 21.7002C38.0761 21.7002 35.5001 19.1011 35.5 15.9502C35.4999 19.1011 32.9239 21.7002 29.75 21.7002C26.5761 21.7002 24.0001 19.1011 24 15.9502C23.9999 19.1011 21.4239 21.7002 18.25 21.7002C15.0761 21.7002 12.5001 19.1011 12.5 15.9502C12.4999 19.1011 9.92393 21.7002 6.75 21.7002C3.57607 21.7002 1.00011 19.1011 1 15.9502L4.19727 3.48438C4.19727 3.48438 4.86399 1.00003 7.20996 1H40.79Z" fill="white"/>
</svg>
