<svg width="31" height="31" viewBox="0 0 31 31" fill="none" xmlns="http://www.w3.org/2000/svg">
<path fill-rule="evenodd" clip-rule="evenodd" d="M15.5132 18.6295L23.343 26.4504C23.7585 26.8654 24.322 27.0985 24.9096 27.0985C25.4971 27.0985 26.0606 26.8654 26.4761 26.4504C26.8916 26.0354 27.125 25.4725 27.125 24.8856C27.125 24.2987 26.8916 23.7359 26.4761 23.3209L18.6434 15.5L26.4746 7.67915C26.6803 7.47366 26.8434 7.22973 26.9546 6.96128C27.0658 6.69284 27.1231 6.40513 27.123 6.1146C27.1229 5.82407 27.0656 5.53639 26.9542 5.268C26.8428 4.9996 26.6796 4.75575 26.4739 4.55036C26.2682 4.34497 26.024 4.18206 25.7552 4.07095C25.4865 3.95983 25.1984 3.90267 24.9076 3.90274C24.6167 3.90281 24.3287 3.9601 24.06 4.07134C23.7913 4.18259 23.5472 4.34561 23.3415 4.5511L15.5132 12.372L7.68346 4.5511C7.47926 4.33972 7.23496 4.17107 6.96481 4.05501C6.69466 3.93894 6.40407 3.87778 6.11 3.87509C5.81594 3.8724 5.52428 3.92824 5.25205 4.03934C4.97981 4.15044 4.73246 4.31459 4.52442 4.5222C4.31637 4.72981 4.15181 4.97673 4.04032 5.24855C3.92883 5.52036 3.87266 5.81164 3.87507 6.10537C3.87749 6.3991 3.93845 6.68942 4.05439 6.95937C4.17033 7.22932 4.33894 7.4735 4.55037 7.67767L12.3831 15.5L4.55184 23.3223C4.34041 23.5265 4.17181 23.7707 4.05587 24.0406C3.93992 24.3106 3.87897 24.6009 3.87655 24.8946C3.87414 25.1884 3.93031 25.4796 4.0418 25.7515C4.15328 26.0233 4.31785 26.2702 4.52589 26.4778C4.73394 26.6854 4.98129 26.8496 5.25352 26.9607C5.52575 27.0718 5.81741 27.1276 6.11148 27.1249C6.40555 27.1222 6.69613 27.0611 6.96628 26.945C7.23643 26.8289 7.48074 26.6603 7.68494 26.4489L15.5132 18.6295Z" fill="#ED1C24"/>
</svg>
