<svg width="789" height="935" viewBox="0 0 789 935" fill="none" xmlns="http://www.w3.org/2000/svg">
<g filter="url(#filter0_fn_2244_2898)">
<path d="M114 821L669 -132L884.5 -164L844.5 644L114 821Z" fill="#1F5CBF"/>
</g>
<g clip-path="url(#clip0_2244_2898)">
<mask id="path-2-inside-1_2244_2898" fill="white">
<path d="M664.847 260.875C658.61 254.615 658.627 244.485 664.887 238.247L993.121 -88.8355C999.38 -95.0729 1009.51 -95.0551 1015.75 -88.7958L1206 102.127C1212.24 108.386 1212.22 118.517 1205.96 124.754L877.727 451.837C871.468 458.074 861.337 458.056 855.1 451.797L664.847 260.875Z"/>
</mask>
<path d="M664.887 238.247L666.299 239.664L994.532 -87.4188L993.121 -88.8355L991.709 -90.2522L663.475 236.831L664.887 238.247ZM1015.75 -88.7958L1014.33 -87.384L1204.58 103.538L1206 102.127L1207.42 100.715L1017.16 -90.2075L1015.75 -88.7958ZM1205.96 124.754L1204.55 123.337L876.316 450.42L877.727 451.837L879.139 453.254L1207.37 126.171L1205.96 124.754ZM855.1 451.797L856.517 450.385L666.264 259.463L664.847 260.875L663.43 262.286L853.683 453.209L855.1 451.797ZM877.727 451.837L876.316 450.42C870.839 455.878 861.974 455.862 856.517 450.385L855.1 451.797L853.683 453.209C860.7 460.251 872.097 460.271 879.139 453.254L877.727 451.837ZM1206 102.127L1204.58 103.538C1210.04 109.015 1210.03 117.88 1204.55 123.337L1205.96 124.754L1207.37 126.171C1214.41 119.154 1214.43 107.757 1207.42 100.715L1206 102.127ZM993.121 -88.8355L994.532 -87.4188C1000.01 -92.8765 1008.87 -92.861 1014.33 -87.384L1015.75 -88.7958L1017.16 -90.2075C1010.15 -97.2493 998.751 -97.2693 991.709 -90.2522L993.121 -88.8355ZM664.887 238.247L663.475 236.831C656.433 243.848 656.413 255.245 663.43 262.286L664.847 260.875L666.264 259.463C660.806 253.986 660.822 245.122 666.299 239.664L664.887 238.247Z" fill="white" mask="url(#path-2-inside-1_2244_2898)"/>
<mask id="path-4-inside-2_2244_2898" fill="white">
<path d="M640.47 134.744C634.233 128.484 634.25 118.354 640.51 112.116L799.826 -46.6409C806.085 -52.8783 816.216 -52.8605 822.453 -46.6011L1012.71 144.321C1018.94 150.581 1018.93 160.711 1012.67 166.949L853.35 325.706C847.091 331.943 836.96 331.926 830.723 325.666L640.47 134.744Z"/>
</mask>
<path d="M640.51 112.116L641.922 113.533L801.238 -45.2242L799.826 -46.6409L798.414 -48.0576L639.098 110.7L640.51 112.116ZM822.453 -46.6011L821.037 -45.1894L1011.29 145.733L1012.71 144.321L1014.12 142.91L823.87 -48.0129L822.453 -46.6011ZM1012.67 166.949L1011.25 165.532L851.939 324.289L853.35 325.706L854.762 327.123L1014.08 168.365L1012.67 166.949ZM830.723 325.666L832.14 324.255L641.887 133.332L640.47 134.744L639.053 136.155L829.306 327.078L830.723 325.666ZM853.35 325.706L851.939 324.289C846.462 329.747 837.597 329.731 832.14 324.255L830.723 325.666L829.306 327.078C836.323 334.12 847.72 334.14 854.762 327.123L853.35 325.706ZM1012.71 144.321L1011.29 145.733C1016.75 151.21 1016.73 160.074 1011.25 165.532L1012.67 166.949L1014.08 168.365C1021.12 161.348 1021.14 149.951 1014.12 142.91L1012.71 144.321ZM799.826 -46.6409L801.238 -45.2242C806.714 -50.6819 815.579 -50.6664 821.037 -45.1894L822.453 -46.6011L823.87 -48.0129C816.853 -55.0546 805.456 -55.0747 798.414 -48.0576L799.826 -46.6409ZM640.51 112.116L639.098 110.7C632.056 117.717 632.036 129.114 639.053 136.155L640.47 134.744L641.887 133.332C636.429 127.855 636.445 118.991 641.922 113.533L640.51 112.116Z" fill="white" mask="url(#path-4-inside-2_2244_2898)"/>
<mask id="path-6-inside-3_2244_2898" fill="white">
<path d="M653.47 201.744C647.233 195.484 647.25 185.354 653.51 179.116L924.451 -90.8744C930.71 -97.1118 940.841 -97.094 947.078 -90.8346L1137.33 100.088C1143.57 106.347 1143.55 116.478 1137.29 122.715L866.35 392.706C860.091 398.943 849.96 398.926 843.723 392.666L653.47 201.744Z"/>
</mask>
<path d="M653.51 179.116L654.922 180.533L925.863 -89.4577L924.451 -90.8744L923.039 -92.2911L652.098 177.7L653.51 179.116ZM947.078 -90.8346L945.661 -89.4229L1135.91 101.5L1137.33 100.088L1138.75 98.6762L948.495 -92.2464L947.078 -90.8346ZM1137.29 122.715L1135.88 121.299L864.939 391.289L866.35 392.706L867.762 394.123L1138.7 124.132L1137.29 122.715ZM843.723 392.666L845.14 391.255L654.887 200.332L653.47 201.744L652.053 203.155L842.306 394.078L843.723 392.666ZM866.35 392.706L864.939 391.289C859.462 396.747 850.597 396.731 845.14 391.255L843.723 392.666L842.306 394.078C849.323 401.12 860.72 401.14 867.762 394.123L866.35 392.706ZM1137.33 100.088L1135.91 101.5C1141.37 106.977 1141.36 115.841 1135.88 121.299L1137.29 122.715L1138.7 124.132C1145.74 117.115 1145.76 105.718 1138.75 98.6762L1137.33 100.088ZM924.451 -90.8744L925.863 -89.4577C931.339 -94.9154 940.204 -94.8998 945.661 -89.4229L947.078 -90.8346L948.495 -92.2464C941.478 -99.2881 930.081 -99.3082 923.039 -92.2911L924.451 -90.8744ZM653.51 179.116L652.098 177.7C645.056 184.717 645.036 196.114 652.053 203.155L653.47 201.744L654.887 200.332C649.429 194.855 649.445 185.991 654.922 180.533L653.51 179.116Z" fill="white" mask="url(#path-6-inside-3_2244_2898)"/>
</g>
<defs>
<filter id="filter0_fn_2244_2898" x="0" y="-278" width="998.5" height="1213" filterUnits="userSpaceOnUse" color-interpolation-filters="sRGB">
<feFlood flood-opacity="0" result="BackgroundImageFix"/>
<feBlend mode="normal" in="SourceGraphic" in2="BackgroundImageFix" result="shape"/>
<feGaussianBlur stdDeviation="57" result="effect1_foregroundBlur_2244_2898"/>
<feTurbulence type="fractalNoise" baseFrequency="2 2" stitchTiles="stitch" numOctaves="3" result="noise" seed="3655" />
<feColorMatrix in="noise" type="luminanceToAlpha" result="alphaNoise" />
<feComponentTransfer in="alphaNoise" result="coloredNoise1">
<feFuncA type="discrete" tableValues="1 1 1 1 1 1 1 1 1 1 1 1 1 1 1 1 1 1 1 1 1 1 1 1 1 1 1 1 1 1 1 1 1 1 1 1 1 1 1 1 1 1 1 1 1 1 1 1 1 1 1 0 0 0 0 0 0 0 0 0 0 0 0 0 0 0 0 0 0 0 0 0 0 0 0 0 0 0 0 0 0 0 0 0 0 0 0 0 0 0 0 0 0 0 0 0 0 0 0 0 "/>
</feComponentTransfer>
<feComposite operator="in" in2="effect1_foregroundBlur_2244_2898" in="coloredNoise1" result="noise1Clipped" />
<feFlood flood-color="rgba(0, 0, 0, 0.19)" result="color1Flood" />
<feComposite operator="in" in2="noise1Clipped" in="color1Flood" result="color1" />
<feMerge result="effect2_noise_2244_2898">
<feMergeNode in="effect1_foregroundBlur_2244_2898" />
<feMergeNode in="color1" />
</feMerge>
</filter>
<clipPath id="clip0_2244_2898">
<rect width="160" height="388" fill="white" transform="matrix(-1 0 0 -1 789 388)"/>
</clipPath>
</defs>
</svg>
